{
	"asset":{
		"generator":"Khronos glTF Blender I/O v3.6.27",
		"version":"2.0"
	},
	"extensionsUsed":[
		"KHR_materials_specular",
		"KHR_materials_ior"
	],
	"scene":0,
	"scenes":[
		{
			"name":"Scene",
			"nodes":[
				0,
				1,
				2,
				3,
				4
			]
		}
	],
	"nodes":[
		{
			"mesh":0,
			"name":"Icosphere",
			"translation":[
				0,
				1.8100805282592773,
				0
			]
		},
		{
			"mesh":1,
			"name":"Plane"
		},
		{
			"mesh":2,
			"name":"MocapGuy_Body",
			"rotation":[
				0.7071068286895752,
				0,
				0,
				0.7071068286895752
			],
			"scale":[
				0.009999999776482582,
				0.009999999776482582,
				0.009999999776482582
			]
		},
		{
			"mesh":3,
			"name":"MocapGuy_Body.001",
			"rotation":[
				0.7071068286895752,
				0,
				0,
				0.7071068286895752
			],
			"scale":[
				0.009999999776482582,
				0.009999999776482582,
				0.009999999776482582
			]
		},
		{
			"mesh":4,
			"name":"MocapGuy_Hat",
			"rotation":[
				0.7071068286895752,
				0,
				0,
				0.7071068286895752
			],
			"scale":[
				0.009999999776482582,
				0.009999999776482582,
				0.009999999776482582
			]
		}
	],
	"materials":[
		{
			"doubleSided":true,
			"name":"marcadores",
			"pbrMetallicRoughness":{
				"baseColorFactor":[
					1,
					1,
					0,
					1
				],
				"metallicFactor":0
			}
		},
		{
			"doubleSided":true,
			"name":"Material.001",
			"pbrMetallicRoughness":{
				"baseColorFactor":[
					0.800000011920929,
					0.800000011920929,
					0.800000011920929,
					1
				],
				"metallicFactor":0
			}
		},
		{
			"doubleSided":true,
			"emissiveFactor":[
				0.20000000298023224,
				0.20000000298023224,
				0.20000000298023224
			],
			"extensions":{
				"KHR_materials_specular":{
					"specularColorFactor":[
						0,
						0,
						0
					]
				},
				"KHR_materials_ior":{
					"ior":1.4500000476837158
				}
			},
			"name":"Reflectors",
			"pbrMetallicRoughness":{
				"baseColorFactor":[
					0.11370925605297089,
					0,
					0.8000000715255737,
					1
				],
				"metallicFactor":0
			}
		},
		{
			"alphaMode":"BLEND",
			"doubleSided":true,
			"name":"Body_MAT",
			"pbrMetallicRoughness":{
				"baseColorTexture":{
					"index":0
				},
				"metallicFactor":0,
				"roughnessFactor":0.5527864098548889
			}
		}
	],
	"meshes":[
		{
			"name":"Icosphere",
			"primitives":[
				{
					"attributes":{
						"POSITION":0,
						"NORMAL":1,
						"TEXCOORD_0":2
					},
					"indices":3,
					"material":0
				}
			]
		},
		{
			"name":"Plane",
			"primitives":[
				{
					"attributes":{
						"POSITION":4,
						"NORMAL":5,
						"TEXCOORD_0":6
					},
					"indices":7,
					"material":1
				}
			]
		},
		{
			"name":"MocapGuy_Body",
			"primitives":[
				{
					"attributes":{
						"POSITION":8,
						"NORMAL":9,
						"TEXCOORD_0":10,
						"TEXCOORD_1":11
					},
					"indices":12,
					"material":2
				}
			]
		},
		{
			"name":"MocapGuy_Body.001",
			"primitives":[
				{
					"attributes":{
						"POSITION":13,
						"NORMAL":14,
						"TEXCOORD_0":15,
						"TEXCOORD_1":16
					},
					"indices":17,
					"material":3
				}
			]
		},
		{
			"name":"MocapGuy_Hat",
			"primitives":[
				{
					"attributes":{
						"POSITION":18,
						"NORMAL":19,
						"TEXCOORD_0":20,
						"TEXCOORD_1":21
					},
					"indices":22,
					"material":0
				}
			]
		}
	],
	"textures":[
		{
			"sampler":0,
			"source":0
		}
	],
	"images":[
		{
			"mimeType":"image/png",
			"name":"MocapSuit02_diffuse",
			"uri":"MocapSuit02_diffuse.png"
		}
	],
	"accessors":[
		{
			"bufferView":0,
			"componentType":5126,
			"count":240,
			"max":[
				0.011412695981562138,
				0.012000000104308128,
				0.012000001035630703
			],
			"min":[
				-0.011412695981562138,
				-0.012000000104308128,
				-0.012000001035630703
			],
			"type":"VEC3"
		},
		{
			"bufferView":1,
			"componentType":5126,
			"count":240,
			"type":"VEC3"
		},
		{
			"bufferView":2,
			"componentType":5126,
			"count":240,
			"type":"VEC2"
		},
		{
			"bufferView":3,
			"componentType":5123,
			"count":240,
			"type":"SCALAR"
		},
		{
			"bufferView":4,
			"componentType":5126,
			"count":4,
			"max":[
				1,
				0,
				1
			],
			"min":[
				-1,
				0,
				-1
			],
			"type":"VEC3"
		},
		{
			"bufferView":5,
			"componentType":5126,
			"count":4,
			"type":"VEC3"
		},
		{
			"bufferView":6,
			"componentType":5126,
			"count":4,
			"type":"VEC2"
		},
		{
			"bufferView":7,
			"componentType":5123,
			"count":6,
			"type":"SCALAR"
		},
		{
			"bufferView":8,
			"componentType":5126,
			"count":3145,
			"max":[
				84.34845733642578,
				17.52602195739746,
				-2.6375982761383057
			],
			"min":[
				-84.34622192382812,
				-15.305994033813477,
				-153.71231079101562
			],
			"type":"VEC3"
		},
		{
			"bufferView":9,
			"componentType":5126,
			"count":3145,
			"type":"VEC3"
		},
		{
			"bufferView":10,
			"componentType":5126,
			"count":3145,
			"type":"VEC2"
		},
		{
			"bufferView":11,
			"componentType":5126,
			"count":3145,
			"type":"VEC2"
		},
		{
			"bufferView":12,
			"componentType":5123,
			"count":8880,
			"type":"SCALAR"
		},
		{
			"bufferView":13,
			"componentType":5126,
			"count":5897,
			"max":[
				97.8708724975586,
				18.088594436645508,
				0.3496631979942322
			],
			"min":[
				-97.86370086669922,
				-14.440793991088867,
				-179.07371520996094
			],
			"type":"VEC3"
		},
		{
			"bufferView":14,
			"componentType":5126,
			"count":5897,
			"type":"VEC3"
		},
		{
			"bufferView":15,
			"componentType":5126,
			"count":5897,
			"type":"VEC2"
		},
		{
			"bufferView":16,
			"componentType":5126,
			"count":5897,
			"type":"VEC2"
		},
		{
			"bufferView":17,
			"componentType":5123,
			"count":30612,
			"type":"SCALAR"
		},
		{
			"bufferView":18,
			"componentType":5126,
			"count":340,
			"max":[
				7.793596267700195,
				10.317728996276855,
				-166.25257873535156
			],
			"min":[
				-7.129238128662109,
				-9.722071647644043,
				-175.59414672851562
			],
			"type":"VEC3"
		},
		{
			"bufferView":19,
			"componentType":5126,
			"count":340,
			"type":"VEC3"
		},
		{
			"bufferView":20,
			"componentType":5126,
			"count":340,
			"type":"VEC2"
		},
		{
			"bufferView":21,
			"componentType":5126,
			"count":340,
			"type":"VEC2"
		},
		{
			"bufferView":22,
			"componentType":5123,
			"count":960,
			"type":"SCALAR"
		}
	],
	"bufferViews":[
		{
			"buffer":0,
			"byteLength":2880,
			"byteOffset":0,
			"target":34962
		},
		{
			"buffer":0,
			"byteLength":2880,
			"byteOffset":2880,
			"target":34962
		},
		{
			"buffer":0,
			"byteLength":1920,
			"byteOffset":5760,
			"target":34962
		},
		{
			"buffer":0,
			"byteLength":480,
			"byteOffset":7680,
			"target":34963
		},
		{
			"buffer":0,
			"byteLength":48,
			"byteOffset":8160,
			"target":34962
		},
		{
			"buffer":0,
			"byteLength":48,
			"byteOffset":8208,
			"target":34962
		},
		{
			"buffer":0,
			"byteLength":32,
			"byteOffset":8256,
			"target":34962
		},
		{
			"buffer":0,
			"byteLength":12,
			"byteOffset":8288,
			"target":34963
		},
		{
			"buffer":0,
			"byteLength":37740,
			"byteOffset":8300,
			"target":34962
		},
		{
			"buffer":0,
			"byteLength":37740,
			"byteOffset":46040,
			"target":34962
		},
		{
			"buffer":0,
			"byteLength":25160,
			"byteOffset":83780,
			"target":34962
		},
		{
			"buffer":0,
			"byteLength":25160,
			"byteOffset":108940,
			"target":34962
		},
		{
			"buffer":0,
			"byteLength":17760,
			"byteOffset":134100,
			"target":34963
		},
		{
			"buffer":0,
			"byteLength":70764,
			"byteOffset":151860,
			"target":34962
		},
		{
			"buffer":0,
			"byteLength":70764,
			"byteOffset":222624,
			"target":34962
		},
		{
			"buffer":0,
			"byteLength":47176,
			"byteOffset":293388,
			"target":34962
		},
		{
			"buffer":0,
			"byteLength":47176,
			"byteOffset":340564,
			"target":34962
		},
		{
			"buffer":0,
			"byteLength":61224,
			"byteOffset":387740,
			"target":34963
		},
		{
			"buffer":0,
			"byteLength":4080,
			"byteOffset":448964,
			"target":34962
		},
		{
			"buffer":0,
			"byteLength":4080,
			"byteOffset":453044,
			"target":34962
		},
		{
			"buffer":0,
			"byteLength":2720,
			"byteOffset":457124,
			"target":34962
		},
		{
			"buffer":0,
			"byteLength":2720,
			"byteOffset":459844,
			"target":34962
		},
		{
			"buffer":0,
			"byteLength":1920,
			"byteOffset":462564,
			"target":34963
		}
	],
	"samplers":[
		{
			"magFilter":9729,
			"minFilter":9987
		}
	],
	"buffers":[
		{
			"byteLength":464484,
			"uri":"mocap.bin"
		}
	]
}
